<svg version="1" xmlns="http://www.w3.org/2000/svg" width="1066.667" height="1066.667" viewBox="0 0 800.000000 800.000000"><path d="M369.5 101.5c-13.4 1.6-16.3 2-29 4.6-9.9 2.1-11.6 2.4-15.5 3.4-1.1.3-2.9.7-4.1 1-4.5.9-32.4 10.7-36 12.6-2.2 1.1-3.9 1.7-3.9 1.5 0-.8-27.7 13.5-35 18-3.6 2.2-7.6 4.7-8.9 5.5-2.9 1.6-1.8.9-15 10.5-10.1 7.4-11.7 8.7-21 16.9-9 7.8-28.3 28-34.1 35.4-8 10.4-17.1 22.9-18.2 25.1-.7 1.4-1.7 2.9-2.1 3.5-9.2 11.3-30.9 59.5-35.2 78.1-.2 1-1.5 6.2-2.9 11.5s-2.8 11.6-3.1 14c-.4 2.4-.8 4.6-1 4.9-.2.3-.7 3.3-1 6.5-.4 3.3-.9 6.9-1.1 8-2.6 13.7-2.5 65.2.2 77 .2 1.1.6 3.6.9 5.5.2 1.9.7 4.8 1 6.5.3 1.6 1 5.5 1.5 8.5.6 3 1.9 8.9 3.1 13 1.1 4.1 2.1 8.2 2.3 9 .2.8 1.9 6 3.6 11.5 2.9 9 4.3 12.7 9.8 26 9.6 23.1 29.4 54.8 47.7 76.1 9.5 11.1 27.4 28.5 39 37.7 3.3 2.7 6.7 5.4 7.5 6 .8.7 5.9 4.2 11.2 7.9 15.8 10.9 31.6 19.6 52.3 28.8 8.3 3.7 28.2 10.8 35.5 12.6.8.2 4.2 1.1 7.5 2 3.3.9 6.9 1.8 8 2 1.1.2 4.3.8 7 1.4 7.6 1.6 8.9 1.8 14.2 2.5 2.6.4 5.9.9 7.3 1.1 17.4 2.8 59.9 2.5 79.5-.5 3.3-.6 7.6-1.2 9.5-1.5 6.4-1 13.4-2.5 24-5.1 11.8-2.9 28.3-8.5 40.5-13.7 10.5-4.5 17.8-7.8 19.5-8.8.8-.5 4.1-2.2 7.3-3.9 3.2-1.7 8.6-4.8 12-6.9 3.4-2.1 7.3-4.5 8.6-5.3 3.4-1.9 23.7-16.7 26.8-19.4.6-.5 3.5-3 6.4-5.5 10.8-9.2 32.8-32.1 37.8-39.4.8-1.2 1.8-2.3 2.1-2.6 2.7-2.1 18.4-25.4 25.3-37.6 4.4-7.8 13.9-27 13.7-27.6-.1-.2 1.2-3.2 2.8-6.8 2.6-5.9 9.6-25.8 10.7-30.6.2-1 1.3-5.3 2.4-9.4 3-11.3 6-28 7.5-42 1.3-12.3 1.4-52 .1-62-.8-6.5-2.4-17.1-3-20-.2-1.3-.7-4.2-1-6.5-2.7-18.1-13.9-51.3-25-74-38.6-78.5-107.2-135.1-191.4-158.1-5.3-1.4-10.5-2.8-11.6-3-1.1-.2-4.2-.8-7-1.4-2.7-.6-5.9-1.2-7-1.4-2.3-.4-14.9-2.3-21.5-3.1-9.2-1.2-50.6-1.2-61.5 0z"/></svg>